<svg xmlns="http://www.w3.org/2000/svg" width="7.438" height="14.877" viewBox="0 0 7.438 14.877">
    <path fill="#1652f0" d="M10.5 105.853a.93.93 0 1 0 1.315 1.315l2.789-2.789q.033-.033.062-.068l.024-.032c.008-.011.021-.027.03-.041l.024-.04.023-.038.02-.042.019-.041.015-.041.016-.045c.005-.015.007-.028.011-.042l.011-.047.007-.048c.002-.016 0-.027.006-.041v-.09-.09c0-.014 0-.027-.006-.041s0-.033-.008-.049-.007-.031-.011-.046l-.011-.042-.015-.044-.015-.042c-.005-.014-.012-.027-.019-.04l-.02-.042c-.007-.014-.015-.025-.022-.037l-.025-.041-.029-.039-.025-.034c-.009-.011-.038-.044-.059-.065l-2.789-2.789a.93.93 0 1 0-1.315 1.315l1.2 1.2H.93a.93.93 0 1 0 0 1.86H11.7z" transform="rotate(90 53.72 53.72)"/>
</svg>
