<svg xmlns="http://www.w3.org/2000/svg" width="23.121" height="21.79" viewBox="0 0 23.121 21.79">
    <g>
        <path fill="#a1abc4" d="M22.493 11.945l-.794-.795-9.708-9.707A4.93 4.93 0 0 0 4.84 8.228a1 1 0 0 0 .082.1l8.269 8.27a3.359 3.359 0 0 0 4.751-4.75l-4.733-4.734a1.172 1.172 0 1 0-1.657 1.657l4.733 4.729a1.016 1.016 0 0 1-1.437 1.437L6.67 6.763A2.591 2.591 0 1 1 10.334 3.1l9.708 9.708.795.794a4.206 4.206 0 0 1-5.948 5.948L4.617 9.279a1.171 1.171 0 1 0-1.657 1.657l10.272 10.27a6.549 6.549 0 1 0 9.261-9.261z" transform="rotate(90 12.87 10.252)"/>
    </g>
</svg>
