<svg xmlns="http://www.w3.org/2000/svg" width="26.064" height="22.845" viewBox="0 0 26.064 22.845">
    <defs>
        <style>
            .cls-1{fill:#a1abc4}
        </style>
    </defs>
    <g id="chatting" transform="translate(0 -31.622)">
        <path id="Path_65" d="M18.023 31.622H2.948A2.951 2.951 0 0 0 0 34.57v13.21a.764.764 0 0 0 1.207.622l4.2-3a2.055 2.055 0 0 1 1.2-.384h9.234a2.951 2.951 0 0 0 2.948-2.948v-9.684a.764.764 0 0 0-.766-.764zm-3.709 9.25H5.491a.764.764 0 0 1 0-1.527h8.823a.764.764 0 0 1 0 1.527zm0-3.563H5.491a.764.764 0 0 1 0-1.527h8.823a.764.764 0 0 1 0 1.527z" class="cls-1"/>
        <path id="Path_66" d="M161.756 150.91v13.21a.764.764 0 0 1-1.207.622l-4.2-2.995a2.055 2.055 0 0 0-1.2-.384h-9.234a2.951 2.951 0 0 1-2.948-2.948v-1.448h8.561a4.48 4.48 0 0 0 4.475-4.475v-4.53h2.8a2.951 2.951 0 0 1 2.953 2.948z" class="cls-1" transform="translate(-135.692 -110.417)"/>
    </g>
</svg>
