<svg xmlns="http://www.w3.org/2000/svg" width="82.571" height="96.692" viewBox="0 0 82.571 96.692">
    <defs>
        <clipPath id="clip-path">
            <path id="Rectangle_38" d="M0 0H82.571V96.692H0z" class="cls-1"/>
        </clipPath>
        <clipPath id="clip-path-2">
            <path id="Rectangle_43" d="M0 0H43.51V51.373H0z" class="cls-1"/>
        </clipPath>
        <style>
            .cls-1{fill:none}.cls-4{fill:#0e47ad}.cls-7{fill:#dad8db}.cls-8{fill:#1652f0}
        </style>
    </defs>
    <g id="Group_46" transform="translate(-146.426 -315.085)">
        <g id="Group_43" transform="translate(10.864 91.722)">
            <g id="Group_37" transform="translate(135.561 223.363)">
                <g id="Group_36" clip-path="url(#clip-path)">
                    <path id="Path_38" fill="#0d47c9" d="M79.213 196.841l-76.325.645A6.283 6.283 0 0 0 0 202.659v46.787a6.3 6.3 0 0 0 6.352 6.238h69.867a6.3 6.3 0 0 0 6.351-6.238v-46.787a7.6 7.6 0 0 0-3.357-5.818" transform="translate(0 -158.992)"/>
                    <path id="Path_39" d="M73.043 253.375H22.23a18.887 18.887 0 0 1-19.054-18.714v-36.817l-.376.342A6.716 6.716 0 0 0 0 203.47v46.786a6.3 6.3 0 0 0 6.352 6.238h66.691z" class="cls-4" transform="translate(0 -159.802)"/>
                    <path id="Path_40" fill="#09366d" d="M88.729 172.6l-5.5-4.774H19.715l-5.49 4.774a4.624 4.624 0 0 0 0 7.008l37.252 32.365 37.252-32.365a4.624 4.624 0 0 0 0-7.009" transform="translate(-10.192 -135.553)"/>
                    <path id="Path_41" fill="#eceaec" d="M49.551 14.036v34.79l31.758 27.592 31.758-27.592V1.56A1.573 1.573 0 0 0 111.478 0H63.841z" transform="translate(-40.023)"/>
                    <path id="Path_42" d="M90.283 252.04l-.557-.485a12.877 12.877 0 0 0-16.834 0l-.567.493L49.551 232.3v4.111l20.386 17.712L81.309 264l31.758-27.592v-4.169z" class="cls-7" transform="translate(-40.023 -187.585)"/>
                    <path id="Path_43" d="M49.551 14.036h12.7a1.574 1.574 0 0 0 1.588-1.56V0z" class="cls-7" transform="translate(-40.023)"/>
                    <path id="Path_44" d="M55.94 334.973a9.657 9.657 0 0 0-12.625 0l-32.987 28.66a6.381 6.381 0 0 0 4.366 1.726h69.867a6.378 6.378 0 0 0 4.365-1.726z" class="cls-8" transform="translate(-8.342 -268.666)"/>
                    <path id="Path_45" d="M88.886 467.175l-1.6-1.393H30.532a19.183 19.183 0 0 1-12.932-4.967l-7.327 6.369a6.393 6.393 0 0 0 4.376 1.717H84.52a6.381 6.381 0 0 0 4.365-1.726" class="cls-4" transform="translate(-8.301 -372.208)"/>
                </g>
            </g>
            <rect id="Rectangle_41" width="50" height="5" class="cls-8" rx="2.5" transform="translate(152.136 248.278)"/>
            <rect id="Rectangle_42" width="27" height="5" class="cls-8" rx="2.5" transform="translate(152.136 260.278)"/>
        </g>
        <g id="Group_45" transform="translate(182 338)">
            <g id="Group_44" clip-path="url(#clip-path-2)">
                <path id="Path_53" fill="#fff" d="M18.921 36.728a1.718 1.718 0 0 0-1.177-.471 1.677 1.677 0 0 0-1.185.481c-.669.668-.2 1.877.308 2.773 1.953 3.43 4.1 6.706 6 9.6 1.435 2.186 2.79 4.251 3.809 6.009.667 1.15 2.03 3.954 2.758 5.469h19.791c1.242-4.01 3.492-11.882 3.492-14.81V33.8a1.679 1.679 0 1 0-3.356 0v5.107a1.755 1.755 0 0 1-3.509 0v-7.98a1.679 1.679 0 1 0-3.357 0v5.689a1.755 1.755 0 0 1-3.509 0v-7.978a1.679 1.679 0 1 0-3.357 0v5.69a1.755 1.755 0 0 1-3.509 0V17.945a1.679 1.679 0 1 0-3.357 0v25.369a1.754 1.754 0 0 1-3.075 1.155z" transform="translate(-12.718 -12.722)"/>
                <path id="Path_54" d="M12.536 5.224v20.7L8.8 21.645c-.026-.03-.053-.058-.08-.086a5.2 5.2 0 0 0-3.677-1.532h-.027a5.131 5.131 0 0 0-3.658 1.509C-.357 23.251-.452 25.8 1.1 28.525c2.007 3.527 4.189 6.852 6.115 9.787 1.406 2.144 2.736 4.17 3.707 5.845.843 1.453 3.079 6.166 3.1 6.214a1.754 1.754 0 0 0 1.585 1h22.188a1.756 1.756 0 0 0 1.671-1.217c.413-1.286 4.044-12.7 4.044-17.1V21.079a5.213 5.213 0 0 0-5.188-5.225 5.135 5.135 0 0 0-2.046.424 5.2 5.2 0 0 0-4.82-3.3 5.137 5.137 0 0 0-2.265.525 5.189 5.189 0 0 0-4.6-2.814 5.114 5.114 0 0 0-1.678.283V5.224a5.188 5.188 0 1 0-10.376 0m2.372 27.011a1.755 1.755 0 0 0 1.138-1.643V5.224a1.679 1.679 0 1 1 3.357 0v16.382a1.755 1.755 0 0 0 3.509 0v-5.69a1.679 1.679 0 1 1 3.356 0V23.9a1.755 1.755 0 0 0 3.509 0v-5.694a1.679 1.679 0 1 1 3.357 0v7.98a1.755 1.755 0 0 0 3.509 0v-5.107a1.679 1.679 0 1 1 3.357 0v11.975c0 2.928-2.25 10.8-3.493 14.81H16.714c-.728-1.514-2.091-4.318-2.758-5.469-1.019-1.758-2.374-3.823-3.809-6.009-1.9-2.891-4.045-6.167-6-9.6-.51-.9-.977-2.1-.308-2.773a1.677 1.677 0 0 1 1.185-.481 1.718 1.718 0 0 1 1.177.471l6.768 7.741a1.755 1.755 0 0 0 1.938.487"/>
            </g>
        </g>
    </g>
</svg>
