<svg xmlns="http://www.w3.org/2000/svg" width="121.153" height="18.934" viewBox="0 0 121.153 18.934">
    <defs>
        <clipPath id="clip-path">
            <path id="Rectangle_8" fill="aqua" d="M0 0H121.153V18.934H0z"/>
        </clipPath>
        <style>
            .cls-3{fill:#1652f0}
        </style>
    </defs>
    <g id="Group_6">
        <g id="Group_5" clip-path="url(#clip-path)">
            <path id="Path_11" d="M8.514 14.923a.378.378 0 0 0-.111-.268L2.175 8.428a.38.38 0 0 0-.537 0L.111 9.953a.38.38 0 0 0 0 .537l4.432 4.432-4.432 4.433a.379.379 0 0 0 0 .537l1.527 1.527a.379.379 0 0 0 .537 0L8.4 15.192a.38.38 0 0 0 .111-.269" transform="translate(0 -6.341)"/>
            <path id="Path_12" d="M98.061 29.954a6.6 6.6 0 0 1-1.968-.8l1-2.162a6.313 6.313 0 0 0 1.679.724 7.043 7.043 0 0 0 1.93.28q1.91 0 1.911-.946a.67.67 0 0 0-.521-.637 7.734 7.734 0 0 0-1.6-.328 15.426 15.426 0 0 1-2.1-.444 3.261 3.261 0 0 1-1.438-.888 2.524 2.524 0 0 1-.608-1.814 2.842 2.842 0 0 1 .569-1.747A3.666 3.666 0 0 1 98.572 20a7.092 7.092 0 0 1 2.577-.425 10.114 10.114 0 0 1 2.191.241 6.136 6.136 0 0 1 1.8.666l-1 2.142a6 6 0 0 0-2.992-.772 3.043 3.043 0 0 0-1.448.27.8.8 0 0 0-.483.695.689.689 0 0 0 .521.675 9.2 9.2 0 0 0 1.66.367 17.872 17.872 0 0 1 2.084.454 3.134 3.134 0 0 1 1.409.878 2.493 2.493 0 0 1 .6 1.776 2.742 2.742 0 0 1-.579 1.718 3.694 3.694 0 0 1-1.689 1.168 7.527 7.527 0 0 1-2.634.415 10.083 10.083 0 0 1-2.528-.319" class="cls-3" transform="translate(-73.263 -14.928)"/>
            <path id="Path_13" d="M152.227 20.245a4.784 4.784 0 0 1 1.863 1.872 5.652 5.652 0 0 1 .676 2.808 5.65 5.65 0 0 1-.676 2.808 4.779 4.779 0 0 1-1.863 1.872 5.29 5.29 0 0 1-2.634.666 4.009 4.009 0 0 1-3.127-1.255v4.845h-3.011V19.733h2.876v1.2a4 4 0 0 1 3.262-1.351 5.29 5.29 0 0 1 2.634.666m-1.254 6.775a2.915 2.915 0 0 0 .743-2.094 2.915 2.915 0 0 0-.743-2.094 2.7 2.7 0 0 0-3.8 0 2.914 2.914 0 0 0-.743 2.094 2.914 2.914 0 0 0 .743 2.094 2.7 2.7 0 0 0 3.8 0" class="cls-3" transform="translate(-109.374 -14.928)"/>
            <path id="Path_14" d="M207.146 25.775h-7.855a2.445 2.445 0 0 0 1 1.525 3.324 3.324 0 0 0 1.969.56 3.981 3.981 0 0 0 1.438-.241 3.487 3.487 0 0 0 1.168-.762l1.6 1.737a5.386 5.386 0 0 1-4.285 1.679 6.775 6.775 0 0 1-3.107-.685 5.022 5.022 0 0 1-2.084-1.9 5.236 5.236 0 0 1-.733-2.76 5.309 5.309 0 0 1 .724-2.75 5.072 5.072 0 0 1 1.988-1.911 6.156 6.156 0 0 1 5.588-.029 4.8 4.8 0 0 1 1.939 1.882 5.614 5.614 0 0 1 .7 2.847q0 .058-.058.811m-7.038-3.342a2.465 2.465 0 0 0-.849 1.583h5.115a2.491 2.491 0 0 0-.849-1.573 2.539 2.539 0 0 0-1.7-.589 2.592 2.592 0 0 0-1.718.579" class="cls-3" transform="translate(-149.635 -14.928)"/>
            <path id="Path_15" d="M255.108 19.965a5.408 5.408 0 0 1 2.113-.386v2.779q-.5-.038-.675-.038a2.76 2.76 0 0 0-2.027.724 2.925 2.925 0 0 0-.733 2.171v4.9h-3.011V19.733h2.876V21.1a3.349 3.349 0 0 1 1.457-1.139" class="cls-3" transform="translate(-191.199 -14.928)"/>
            <path id="Path_16" d="M289.74 22.74a3.084 3.084 0 0 1-1.09.492 5.518 5.518 0 0 1-1.361.164 4.042 4.042 0 0 1-2.866-.946 3.617 3.617 0 0 1-1.013-2.779v-4.265h-1.6v-2.317h1.6v-2.528h3.011v2.528h2.586v2.316h-2.586v4.227a1.418 1.418 0 0 0 .338 1.013 1.252 1.252 0 0 0 .956.357 1.935 1.935 0 0 0 1.216-.386z" class="cls-3" transform="translate(-214.859 -8.052)"/>
            <path id="Path_17" d="M321.326 2.876a1.564 1.564 0 0 1-.521-1.2 1.565 1.565 0 0 1 .521-1.2A1.911 1.911 0 0 1 322.677 0a1.957 1.957 0 0 1 1.351.463 1.485 1.485 0 0 1 .521 1.158 1.638 1.638 0 0 1-.521 1.245 1.886 1.886 0 0 1-1.351.492 1.91 1.91 0 0 1-1.351-.483m-.154 1.93h3.011v10.384h-3.011z" class="cls-3" transform="translate(-244.592)"/>
            <path id="Path_18" d="M347.05 52.03a1.832 1.832 0 0 1-.54-1.351 1.761 1.761 0 0 1 .54-1.341 1.989 1.989 0 0 1 2.663 0 1.763 1.763 0 0 1 .54 1.341 1.833 1.833 0 0 1-.54 1.351 1.911 1.911 0 0 1-2.663 0" transform="translate(-264.19 -37.226)"/>
            <path id="Rectangle_7" d="M0 0H3.011V14.321H0z" transform="translate(88.11 .869)"/>
            <path id="Path_19" d="M394.313 2.876a1.565 1.565 0 0 1-.521-1.2 1.566 1.566 0 0 1 .521-1.2A1.911 1.911 0 0 1 395.664 0a1.958 1.958 0 0 1 1.351.463 1.484 1.484 0 0 1 .521 1.158 1.638 1.638 0 0 1-.521 1.245 1.887 1.887 0 0 1-1.351.492 1.91 1.91 0 0 1-1.351-.483m-.154 1.93h3.011v10.384h-3.011z" transform="translate(-300.239)"/>
            <path id="Path_20" d="M425.14 20.229l-4.381 10.384h-3.107l-4.362-10.384h3.11l2.876 7.064 2.972-7.064z" transform="translate(-315.104 -15.424)"/>
            <path id="Path_21" d="M474.788 25.775h-7.855a2.445 2.445 0 0 0 1 1.525 3.325 3.325 0 0 0 1.969.56 3.981 3.981 0 0 0 1.438-.241 3.488 3.488 0 0 0 1.168-.762l1.6 1.737a5.385 5.385 0 0 1-4.285 1.679 6.774 6.774 0 0 1-3.107-.685 5.022 5.022 0 0 1-2.084-1.9 5.236 5.236 0 0 1-.733-2.76 5.308 5.308 0 0 1 .724-2.75 5.072 5.072 0 0 1 1.988-1.911 6.156 6.156 0 0 1 5.588-.029 4.8 4.8 0 0 1 1.94 1.882 5.614 5.614 0 0 1 .7 2.847q0 .058-.058.811m-7.045-3.339a2.465 2.465 0 0 0-.849 1.583h5.115a2.491 2.491 0 0 0-.849-1.573 2.538 2.538 0 0 0-1.7-.589 2.592 2.592 0 0 0-1.718.579" transform="translate(-353.694 -14.928)"/>
            <path id="Path_22" d="M50.13 14.943h6.27v-2.431h-6.27V9.578h7.1V7.069H47.023v9.62h3.107z" class="cls-3" transform="translate(-35.852 -5.39)"/>
            <path id="Path_23" d="M50.13 53.376h-3.107v2.509h10.461v-2.509z" transform="translate(-35.852 -40.695)"/>
        </g>
    </g>
</svg>
