<svg xmlns="http://www.w3.org/2000/svg" width="23.233" height="23.232" viewBox="0 0 23.233 23.232">
    <g>
        <path fill="#1652f0" d="M11.617 0a11.616 11.616 0 1 0 11.616 11.617A11.617 11.617 0 0 0 11.617 0zm0 3.473a3.842 3.842 0 1 1-3.842 3.844 3.842 3.842 0 0 1 3.842-3.843zm0 16.722a8.525 8.525 0 0 1-5.552-2.047 1.637 1.637 0 0 1-.577-1.248 3.875 3.875 0 0 1 3.894-3.87h4.471a3.869 3.869 0 0 1 3.887 3.87 1.633 1.633 0 0 1-.574 1.244 8.522 8.522 0 0 1-5.552 2.056z" transform="translate(0 -.001)"/>
    </g>
</svg>
